<svg viewBox="0 0 24 24" fill="none" xmlns="http://www.w3.org/2000/svg" id="Sun--Streamline-Radix" height="24" width="24">
  <desc>
    Sun Streamline Icon: https://streamlinehq.com
  </desc>
  <path fill-rule="evenodd" clip-rule="evenodd" d="M12 0c0.441824 0 0.8 0.3581728 0.8 0.8v3.2c0 0.441824 -0.35817600000000005 0.8 -0.8 0.8S11.200000000000001 4.4418239999999996 11.200000000000001 4v-3.2c0 -0.44182720000000003 0.35817600000000005 -0.8 0.8 -0.8ZM3.51472 3.51472c0.312416 -0.312416 0.818944 -0.312416 1.1313760000000002 0l2.262736 2.262736c0.312416 0.312416 0.312416 0.8189600000000001 0 1.1313760000000002s-0.8189600000000001 0.312416 -1.1313760000000002 0L3.51472 4.646096c-0.312416 -0.31243200000000004 -0.312416 -0.8189600000000001 0 -1.1313760000000002ZM0.8 11.200000000000001c-0.44182720000000003 0 -0.8 0.35817600000000005 -0.8 0.8s0.3581728 0.8 0.8 0.8h3.2c0.441824 0 0.8 -0.35817600000000005 0.8 -0.8S4.4418239999999996 11.200000000000001 4 11.200000000000001h-3.2Zm2.7147200000000002 9.28528c-0.312416 -0.31248000000000004 -0.312416 -0.81888 0 -1.13136l2.262736 -2.26272c0.312416 -0.31248000000000004 0.8189600000000001 -0.31248000000000004 1.1313760000000002 0 0.312416 0.31232000000000004 0.312416 0.81888 0 1.13136l-2.262736 2.26272c-0.31243200000000004 0.31248000000000004 -0.8189600000000001 0.31248000000000004 -1.1313760000000002 0ZM20 11.200000000000001c-0.44176000000000004 0 -0.8 0.35817600000000005 -0.8 0.8s0.35824 0.8 0.8 0.8h3.2c0.44176000000000004 0 0.8 -0.35817600000000005 0.8 -0.8s-0.35824 -0.8 -0.8 -0.8h-3.2Zm-2.9088000000000003 -4.291168c-0.31248000000000004 -0.312416 -0.31248000000000004 -0.8189600000000001 0 -1.1313760000000002l2.26272 -2.262736c0.31248000000000004 -0.312416 0.81888 -0.312416 1.13136 0 0.31248000000000004 0.312416 0.31248000000000004 0.818944 0 1.1313760000000002l-2.26272 2.262736c-0.31248000000000004 0.312416 -0.8190400000000001 0.312416 -1.13136 0ZM12.8 20c0 -0.44176000000000004 -0.35817600000000005 -0.8 -0.8 -0.8s-0.8 0.35824 -0.8 0.8v3.2c0 0.44176000000000004 0.35817600000000005 0.8 0.8 0.8s0.8 -0.35824 0.8 -0.8v-3.2Zm4.2912 -2.9088000000000003c0.31232000000000004 -0.31248000000000004 0.81888 -0.31248000000000004 1.13136 0l2.26272 2.26272c0.31248000000000004 0.31248000000000004 0.31248000000000004 0.81888 0 1.13136 -0.31248000000000004 0.31248000000000004 -0.81888 0.31248000000000004 -1.13136 0l-2.26272 -2.26272c-0.31248000000000004 -0.31248000000000004 -0.31248000000000004 -0.8190400000000001 0 -1.13136ZM8.8 12c0 -1.7673120000000002 1.432688 -3.2 3.2 -3.2s3.2 1.432688 3.2 3.2 -1.432688 3.2 -3.2 3.2 -3.2 -1.432688 -3.2 -3.2Zm3.2 -4.800000000000001c-2.65096 0 -4.800000000000001 2.1490400000000003 -4.800000000000001 4.800000000000001s2.1490400000000003 4.800000000000001 4.800000000000001 4.800000000000001 4.800000000000001 -2.1490400000000003 4.800000000000001 -4.800000000000001 -2.1490400000000003 -4.800000000000001 -4.800000000000001 -4.800000000000001Z" fill="#000000" stroke-width="1.6"></path>
</svg>